<svg fill="#000000" xmlns="http://www.w3.org/2000/svg"  viewBox="0 0 64 64" width="256px" height="256px"><path d="M 42.570312 0 C 30.950313 0 21.540625 8.9491406 21.140625 20.369141 C 21.120625 20.749141 21.330156 21.109062 21.660156 21.289062 C 21.990156 21.469062 22.400938 21.450469 22.710938 21.230469 C 24.810938 19.750469 26.909219 18.940938 29.199219 18.710938 C 29.069219 19.460938 29 20.22 29 21 C 29 22.53 29.269766 23.989375 29.759766 25.359375 C 28.669766 24.699375 27.209766 24.839297 26.259766 25.779297 C 25.709766 26.319297 25.410156 27.030781 25.410156 27.800781 C 25.410156 28.560781 25.709766 29.270547 26.259766 29.810547 L 27.160156 30.699219 L 9.9199219 47.660156 L 9.0605469 46.820312 C 7.9605469 45.730312 6.1705469 45.730312 5.0605469 46.820312 C 4.5205469 47.350313 4.2304688 48.060547 4.2304688 48.810547 C 4.2304688 49.560547 4.5205469 50.270781 5.0605469 50.800781 L 5.8007812 51.529297 C 5.1607813 51.779297 4.0896875 52.339453 2.9296875 53.439453 C 1.2696875 55.019453 0.20976562 60.700078 0.009765625 61.830078 C -0.040234375 62.150078 0.0590625 62.470938 0.2890625 62.710938 C 0.4790625 62.900937 0.74 63 1 63 C 1.05 63 1.1099219 63.000234 1.1699219 62.990234 C 2.3099219 62.790234 8.0796875 61.749141 9.6796875 60.119141 C 10.819688 58.959141 11.380625 57.889766 11.640625 57.259766 L 12.410156 58.019531 C 12.940156 58.549531 13.650156 58.839844 14.410156 58.839844 C 15.170156 58.839844 15.880156 58.549531 16.410156 58.019531 C 16.950156 57.489531 17.25 56.789297 17.25 56.029297 C 17.25 55.279297 16.950156 54.569062 16.410156 54.039062 L 15.570312 53.220703 L 32.820312 36.259766 L 33.740234 37.169922 C 34.280234 37.709922 34.999531 38 35.769531 38 C 36.529531 38 37.249062 37.709922 37.789062 37.169922 C 38.339062 36.639922 38.640625 35.920156 38.640625 35.160156 C 38.640625 34.500156 38.410234 33.869375 37.990234 33.359375 C 39.250234 33.779375 40.6 34 42 34 C 43.06 34 44.090313 33.870859 45.070312 33.630859 C 44.930312 36.120859 44.100938 38.359141 42.460938 40.619141 C 42.240938 40.929141 42.210625 41.339922 42.390625 41.669922 C 42.560625 41.999922 42.899531 42.199219 43.269531 42.199219 L 43.310547 42.199219 C 54.910547 41.809219 64 32.539609 64 21.099609 C 64 20.379609 63.960859 19.669922 63.880859 18.919922 C 63.840859 18.499922 63.540859 18.150781 63.130859 18.050781 C 62.710859 17.950781 62.290547 18.120703 62.060547 18.470703 C 62.020547 18.530703 58.750469 23.359922 54.230469 25.419922 C 54.730469 24.039922 55 22.55 55 21 C 55 13.83 49.17 8 42 8 C 40.91 8 39.840078 8.140625 38.830078 8.390625 C 41.150078 4.610625 45.170703 1.9892187 45.220703 1.9492188 C 45.580703 1.7192187 45.750391 1.2908594 45.650391 0.88085938 C 45.550391 0.46085938 45.209297 0.15914063 44.779297 0.11914062 C 44.019297 0.039140625 43.300312 0 42.570312 0 z M 41.839844 2.0097656 C 39.939844 3.6197656 37.370547 6.2294531 36.060547 9.4394531 C 35.694297 9.6282031 35.33709 9.8351953 34.992188 10.056641 C 34.647285 10.278086 34.313672 10.513594 33.992188 10.765625 C 33.670703 11.017656 33.362402 11.285898 33.066406 11.566406 C 32.77041 11.846914 32.487187 12.140391 32.21875 12.447266 C 31.950312 12.754141 31.69584 13.073164 31.457031 13.404297 C 31.218223 13.73543 30.994219 14.078359 30.787109 14.431641 C 30.58 14.784922 30.390137 15.150117 30.216797 15.523438 C 30.043457 15.896758 29.8875 16.278672 29.75 16.669922 C 27.49 16.779922 25.360781 17.389766 23.300781 18.509766 C 24.550781 9.3397656 32.299844 2.3497656 41.839844 2.0097656 z M 42 10 C 48.07 10 53 14.93 53 21 C 53 22.79 52.570547 24.480703 51.810547 25.970703 C 51.510547 26.580703 51.140469 27.159219 50.730469 27.699219 C 49.610469 29.139219 48.160469 30.300781 46.480469 31.050781 C 45.800469 31.350781 45.079844 31.59 44.339844 31.75 C 43.589844 31.91 42.8 32 42 32 C 40.56 32 39.189453 31.730703 37.939453 31.220703 C 37.279453 30.960703 36.650547 30.639766 36.060547 30.259766 C 35.228047 29.719766 34.472891 29.0725 33.810547 28.339844 C 33.589766 28.095625 33.379688 27.842578 33.179688 27.580078 C 32.779688 27.030078 32.419375 26.450078 32.109375 25.830078 C 31.399375 24.370078 31 22.73 31 21 C 31 20.26 31.070938 19.539844 31.210938 18.839844 C 31.360937 18.109844 31.569609 17.410234 31.849609 16.740234 C 32.039609 16.292734 32.257734 15.860625 32.501953 15.445312 C 32.746172 15.03 33.016172 14.630703 33.310547 14.251953 C 33.604922 13.873203 33.923203 13.513594 34.263672 13.175781 C 34.604141 12.837969 34.967109 12.522969 35.349609 12.230469 C 36.059609 11.700469 36.839922 11.240859 37.669922 10.880859 C 38.999922 10.320859 40.46 10 42 10 z M 37.181641 13.648438 C 36.969141 13.620938 36.750547 13.659531 36.560547 13.769531 C 36.480547 13.809531 36.409844 13.869687 36.339844 13.929688 C 35.949844 14.319687 35.949844 14.949844 36.339844 15.339844 C 35.949844 14.949844 35.319688 14.949844 34.929688 15.339844 C 34.539687 15.729844 34.539687 16.369766 34.929688 16.759766 L 35.949219 17.779297 C 35.829219 18.379297 35.689766 19.37 35.759766 20.5 C 35.849766 22.02 36.33 23.800234 37.75 25.240234 C 39.22 26.730234 41.070859 27.199531 42.630859 27.269531 C 43.710859 27.319531 44.650469 27.170781 45.230469 27.050781 L 46.240234 28.070312 C 46.440234 28.270312 46.689219 28.359375 46.949219 28.359375 C 47.209219 28.359375 47.460156 28.270312 47.660156 28.070312 C 48.050156 27.680312 48.050156 27.050156 47.660156 26.660156 C 47.850156 26.850156 48.109375 26.949219 48.359375 26.949219 C 48.619375 26.949219 48.880313 26.850156 49.070312 26.660156 C 49.170312 26.550156 49.250781 26.430781 49.300781 26.300781 C 49.430781 25.940781 49.350313 25.520234 49.070312 25.240234 L 48.050781 24.230469 C 48.140781 23.810469 48.239531 23.190703 48.269531 22.470703 C 48.339531 20.780703 48.010234 18.5 46.240234 16.75 C 44.440234 14.98 42.109687 14.68 40.429688 14.75 C 39.749687 14.78 39.179297 14.869219 38.779297 14.949219 L 37.759766 13.929688 C 37.599766 13.769687 37.394141 13.675937 37.181641 13.648438 z M 41.039062 16.742188 C 41.551562 16.750937 42.109922 16.810938 42.669922 16.960938 C 43.429922 17.170938 44.190078 17.539687 44.830078 18.179688 C 45.460078 18.799687 45.829062 19.539297 46.039062 20.279297 C 46.339063 21.369297 46.289453 22.480234 46.189453 23.240234 C 46.109453 23.840234 45.990234 24.230234 45.990234 24.240234 C 45.880234 24.600234 45.980234 24.980234 46.240234 25.240234 C 45.980234 24.980234 45.6 24.890234 45.25 24.990234 C 45.21 25.000234 41.419688 26.110078 39.179688 23.830078 C 36.929687 21.550078 37.999766 17.79 38.009766 17.75 C 38.109766 17.4 38.019766 17.019766 37.759766 16.759766 C 38.019766 17.019766 38.4 17.109766 38.75 17.009766 C 38.76 17.009766 39.119687 16.900078 39.679688 16.830078 C 40.059688 16.775078 40.526563 16.733438 41.039062 16.742188 z M 42.050781 19.060547 C 42.020781 19.060547 41.979219 19.060312 41.949219 19.070312 C 40.919219 19.120313 40.099609 19.969297 40.099609 21.029297 C 40.099609 22.119297 40.970781 23 42.050781 23 C 43.110781 23 43.97 22.150078 44 21.080078 L 44 21.029297 C 44 20.34743 43.659973 19.749973 43.140625 19.396484 C 43.036914 19.325762 42.927266 19.264609 42.810547 19.214844 C 42.577109 19.115312 42.320781 19.060547 42.050781 19.060547 z M 61.990234 21.800781 C 61.650234 31.180781 54.539219 38.809063 45.199219 40.039062 C 46.459219 37.799062 47.079844 35.470703 47.089844 32.970703 C 49.509844 31.930703 51.560937 30.180469 52.960938 27.980469 C 56.900937 26.980469 60.130234 23.940781 61.990234 21.800781 z M 28.279297 26.949219 C 28.509297 26.949219 28.730391 27.040938 28.900391 27.210938 L 29.800781 28.099609 L 31.230469 29.5 L 34.029297 32.25 L 35.460938 33.660156 L 36.390625 34.570312 C 36.550625 34.730312 36.640625 34.940156 36.640625 35.160156 C 36.640625 35.380156 36.550625 35.59 36.390625 35.75 C 36.060625 36.07 35.480625 36.07 35.140625 35.75 L 34.240234 34.859375 L 32.810547 33.449219 L 30.009766 30.699219 L 28.589844 29.289062 L 27.660156 28.380859 C 27.500156 28.230859 27.410156 28.020781 27.410156 27.800781 C 27.410156 27.570781 27.500156 27.370937 27.660156 27.210938 C 27.830156 27.040937 28.059297 26.949219 28.279297 26.949219 z M 28.589844 32.099609 L 31.390625 34.849609 L 14.150391 51.820312 L 11.349609 49.070312 L 28.589844 32.099609 z M 33.328125 38.974609 C 33.072125 38.972609 32.813688 39.068219 32.617188 39.261719 C 32.223188 39.648719 32.217469 40.281781 32.605469 40.675781 L 34.007812 42.101562 C 34.202813 42.300562 34.461703 42.400391 34.720703 42.400391 C 34.973703 42.400391 35.227875 42.304281 35.421875 42.113281 C 35.815875 41.726281 35.821594 41.093219 35.433594 40.699219 L 34.03125 39.273438 C 33.83775 39.075938 33.584125 38.976609 33.328125 38.974609 z M 29.710938 42.53125 C 29.454937 42.529 29.198453 42.624359 29.001953 42.818359 C 28.607953 43.205359 28.600281 43.838422 28.988281 44.232422 L 30.390625 45.658203 C 30.585625 45.857203 30.844516 45.957031 31.103516 45.957031 C 31.356516 45.957031 31.610688 45.862875 31.804688 45.671875 C 32.198688 45.284875 32.204406 44.651812 31.816406 44.257812 L 30.414062 42.830078 C 30.220562 42.633078 29.966938 42.5335 29.710938 42.53125 z M 26.09375 46.087891 C 25.83775 46.085766 25.581266 46.182953 25.384766 46.376953 C 24.990766 46.763953 24.985047 47.395063 25.373047 47.789062 L 26.775391 49.216797 C 26.970391 49.415797 27.229281 49.515625 27.488281 49.515625 C 27.741281 49.515625 27.995453 49.419516 28.189453 49.228516 C 28.583453 48.841516 28.589172 48.208453 28.201172 47.814453 L 26.798828 46.388672 C 26.605328 46.191172 26.34975 46.090016 26.09375 46.087891 z M 7.0605469 48 C 7.2805469 48 7.5001563 48.080234 7.6601562 48.240234 L 8.5 49.060547 L 9.9199219 50.470703 L 12.720703 53.220703 L 14.150391 54.619141 L 15.009766 55.470703 C 15.159766 55.620703 15.25 55.819297 15.25 56.029297 C 15.25 56.249297 15.16 56.449609 15 56.599609 C 14.69 56.909609 14.130547 56.909609 13.810547 56.599609 L 12.970703 55.779297 L 11.550781 54.369141 L 8.75 51.619141 L 7.3300781 50.210938 L 6.4707031 49.369141 C 6.3107031 49.219141 6.2304688 49.020547 6.2304688 48.810547 C 6.2304688 48.600547 6.3107031 48.390234 6.4707031 48.240234 C 6.6307031 48.080234 6.8505469 48 7.0605469 48 z M 22.478516 49.646484 C 22.222516 49.644359 21.966031 49.739594 21.769531 49.933594 C 21.375531 50.320594 21.369812 50.953656 21.757812 51.347656 L 23.158203 52.773438 C 23.353203 52.972438 23.612094 53.072266 23.871094 53.072266 C 24.124094 53.072266 24.378266 52.976156 24.572266 52.785156 C 24.966266 52.398156 24.973938 51.765094 24.585938 51.371094 L 23.183594 49.945312 C 22.990094 49.747812 22.734516 49.648609 22.478516 49.646484 z M 7.3203125 53.019531 L 10.130859 55.779297 C 10.020859 55.899297 9.9403906 56.049219 9.9003906 56.199219 C 9.8903906 56.209219 9.56 57.380469 8.25 58.730469 C 7.55 59.440469 4.6897656 60.240234 2.2597656 60.740234 C 2.7697656 58.370234 3.5905469 55.580391 4.3105469 54.900391 C 5.6805469 53.590391 6.8708594 53.269531 6.8808594 53.269531 C 7.0408594 53.219531 7.2003125 53.139531 7.3203125 53.019531 z M 18.861328 53.203125 C 18.605328 53.201125 18.348844 53.296734 18.152344 53.490234 C 17.758344 53.877234 17.752625 54.510297 18.140625 54.904297 L 19.542969 56.330078 C 19.737969 56.529078 19.996859 56.630859 20.255859 56.630859 C 20.508859 56.630859 20.763031 56.53575 20.957031 56.34375 C 21.351031 55.95675 21.35675 55.323687 20.96875 54.929688 L 19.566406 53.503906 C 19.372906 53.306406 19.117328 53.205125 18.861328 53.203125 z"/></svg>